<svg id="Camada_1_cópia" data-name="Camada 1 cópia" xmlns="http://www.w3.org/2000/svg" viewBox="0 0 100 88.01"><defs><style>.cls-1{fill:#7f7f7f;}</style></defs><path class="cls-1" d="M100,80.82,83.8,73.63v5.21H54v0c.23-1.16.39-2.34.52-3.51.3-2.66.29-2.66,2.8-3.18a29.15,29.15,0,0,0,22.93-28,49.38,49.38,0,0,0-2.06-12.91c-.65-2.46-1.45-4.88-2.25-7.52l1,.26c2.42.65,4.19-1,3.6-3.38a13.76,13.76,0,0,0-1.3-2.78c-.33-.66-.7-1.3-1.24-2.28l5.8-.43c-.61-2.5-3.12-3.12-4.34-4.85,2-1.21,2.42-2.36,1.8-4.3a3,3,0,0,0-3.62-2.14c-1.63.34-2.31-.25-2.84-1.66a3,3,0,0,0-5.71,0,5.73,5.73,0,0,1-.38.62C65.34.17,64.11-.11,62.92,1.59a4.17,4.17,0,0,0-.63,2.3c.05,2.23,1.61,3.38,3.52,4.16-.18.22-.23.34-.31.37-4.36,1.4-6.65,4.64-7.84,8.84-.73,2.57-1.31,5.2-2.15,7.74C54.57,27.87,53,30.47,50,31.5c-4.77,1.66-9.56.7-12-4.39a42.38,42.38,0,0,0-4.52-7.52c-3.68-4.7-8.41-7.71-14.63-7.7-2.55,0-3.93,1.48-4.2,4.37-.24,2.59.54,3.37,3.23,4.18A27.44,27.44,0,0,1,24,23.07a8.2,8.2,0,0,1,3.68,5.15A7.75,7.75,0,0,1,26.1,27c-2.61-2.29-5.48-4-9.07-4.19-2.68-.13-4.19,1-4.62,3.5-.51,2.87.43,4.45,3.15,5.3.64.2,1.29.36,1.93.55a6.49,6.49,0,0,1,4,3.1c-1,0-1.68.07-2.38.13a4,4,0,0,0-4,4.51c.13,2.23,1.48,3.72,4.28,4.41,1.36.34,1.81.88,1.63,2.33A19.5,19.5,0,0,0,23.45,59c3.86,6.76,9.74,10.92,17.13,13,1.15.33,1.79.85,1.88,2.07s.29,2.66.38,4c0,.34,0,.62,0,.86-7.14,0-14.28,0-21.42.05-1.84,0-3.24-.35-4.22-2a3.74,3.74,0,0,0-3.75-1.77c-3.93.14-7.87,0-11.81,0-.44,0-.88.07-1.54.13l4.59,5.38L0,86.33c4.57,0,8.73-.13,12.87,0,2.13.1,3.69-.46,4.79-2.26a3.25,3.25,0,0,1,3.17-1.46q30.35.06,60.71,0h2.25V88ZM74.45,11.73c1,.23,1.84.75,1.65,1.95-.16,1-.74,2-1.91,1.81a1.92,1.92,0,0,1-1.78-2.13C72.49,12.19,73.27,11.7,74.45,11.73ZM49,79H46.46c0-.48.07-1.17.1-2.18,0-.51,0-1,0-1.53.1-2,.28-2.16,2.27-2.17,1,0,1.51.27,1.53,1.38,0,1.46.2,2.91.33,4.37H49Z"/></svg>